<?xml version="1.0" standalone="no"?>
<!DOCTYPE svg PUBLIC "-//W3C//DTD SVG 20010904//EN"
 "http://www.w3.org/TR/2001/REC-SVG-20010904/DTD/svg10.dtd">
<svg version="1.0" xmlns="http://www.w3.org/2000/svg"
 width="894.000000pt" height="528.000000pt" viewBox="0 0 894.000000 528.000000"
 preserveAspectRatio="xMidYMid meet">
<metadata>
Created by potrace 1.10, written by Peter Selinger 2001-2011
</metadata>
<g transform="translate(0.000000,528.000000) scale(0.100000,-0.100000)"
fill="#000000" stroke="none">
<path d="M0 2640 l0 -2640 4470 0 4470 0 0 2640 0 2640 -4470 0 -4470 0 0
-2640z m8872 2538 c10 -17 10 -5109 0 -5126 -7 -10 -891 -12 -4401 -12 -2416
0 -4397 2 -4402 6 -5 3 -9 1040 -9 2570 0 2529 0 2565 19 2572 11 4 1992 6
4402 5 3502 -2 4384 -5 4391 -15z"/>
<path d="M142 2603 l3 -2488 2155 0 2155 0 3 2488 2 2487 -2160 0 -2160 0 2
-2487z m1960 370 c13 -12 18 -30 18 -69 0 -80 17 -86 222 -82 154 3 160 4 179
27 13 15 19 39 19 70 0 26 5 52 12 59 9 9 112 12 401 12 360 0 391 -1 403 -17
7 -10 14 -30 14 -44 1 -89 23 -109 119 -109 71 0 87 -15 93 -88 3 -29 10 -58
17 -65 6 -6 45 -13 87 -15 62 -4 77 -8 89 -25 13 -18 15 -112 15 -662 0 -594
-2 -642 -18 -663 -17 -22 -20 -22 -197 -20 l-179 3 -13 25 c-10 19 -13 169
-13 664 0 581 -2 641 -17 658 -15 17 -40 18 -397 18 -301 -1 -385 -3 -398 -14
-17 -12 -18 -56 -18 -661 l0 -649 -22 -23 c-21 -22 -27 -23 -191 -23 -145 0
-173 3 -189 17 -17 15 -18 49 -18 666 0 591 -2 652 -17 669 -15 17 -41 18
-395 18 -332 0 -382 -2 -403 -16 l-25 -16 0 -651 c0 -591 -2 -652 -17 -669
-14 -16 -34 -18 -186 -18 -161 0 -172 1 -194 22 l-23 21 0 642 0 642 23 20
c16 15 40 22 93 25 39 3 76 8 83 12 6 4 11 32 11 62 0 74 20 94 95 94 31 0 69
7 85 15 27 14 30 20 30 67 0 93 -23 88 418 88 345 0 387 -2 404 -17z"/>
<path d="M6409 3664 c-7 -8 -16 -41 -20 -72 -10 -70 -25 -82 -104 -82 -82 0
-97 -12 -106 -89 -4 -34 -10 -65 -14 -69 -3 -4 -40 -8 -81 -10 -127 -7 -114
106 -114 -1029 0 -853 2 -978 15 -1003 l16 -30 179 0 c174 0 179 1 194 22 14
20 16 100 16 669 0 613 1 647 18 662 17 15 59 17 388 18 203 1 380 4 394 8
l25 7 3 148 c2 101 -1 153 -9 162 -9 12 -80 14 -395 14 -468 0 -424 -18 -424
177 0 120 2 135 20 153 19 19 33 20 389 20 216 0 380 4 395 10 l26 10 0 148
c0 102 -4 152 -12 160 -9 9 -111 12 -399 12 -338 0 -388 -2 -400 -16z"/>
</g>
</svg>
