<svg xmlns="http://www.w3.org/2000/svg" xmlns:xlink="http://www.w3.org/1999/xlink" width="1080" zoomAndPan="magnify" viewBox="0 0 810 809.999993" height="1080" preserveAspectRatio="xMidYMid meet" version="1.0"><defs><g/><clipPath id="92e8ef866f"><path d="M 39.46875 151.683594 L 630.460938 151.683594 L 630.460938 510.183594 L 39.46875 510.183594 Z M 39.46875 151.683594 " clip-rule="nonzero"/></clipPath><clipPath id="432c418557"><path d="M 53.71875 167.695312 L 335.078125 167.695312 L 335.078125 492 L 53.71875 492 Z M 53.71875 167.695312 " clip-rule="nonzero"/></clipPath></defs><g fill="#b3298d" fill-opacity="1"><g transform="translate(418.338534, 533.210681)"><g/></g></g><g clip-path="url(#92e8ef866f)"><path stroke-linecap="butt" transform="matrix(0.749718, 0, 0, 0.750687, 39.469052, 151.681668)" fill="none" stroke-linejoin="miter" d="M -0.000402491 0.00256482 L 788.28607 0.00256482 L 788.28607 477.559877 L -0.000402491 477.559877 L -0.000402491 0.00256482 " stroke="#000000" stroke-width="10" stroke-opacity="1" stroke-miterlimit="4"/></g><g clip-path="url(#432c418557)"><path fill="#000000" d="M 53.71875 167.695312 L 335.847656 167.695312 L 335.847656 491.621094 L 53.71875 491.621094 Z M 53.71875 167.695312 " fill-opacity="1" fill-rule="nonzero"/></g><g fill="#ffffff" fill-opacity="1"><g transform="translate(98.012547, 416.547172)"><g><path d="M 33.453125 -111.351562 C 31.816406 -111.351562 30.410156 -109.949219 30.410156 -108.3125 L 30.410156 -103.398438 C 30.410156 -101.761719 29.007812 -100.359375 27.371094 -100.359375 L 19.882812 -100.359375 C 18.246094 -100.359375 16.84375 -98.953125 16.84375 -97.316406 L 16.84375 -92.171875 C 16.84375 -90.53125 15.441406 -89.128906 13.800781 -89.128906 L 6.316406 -89.128906 C 4.679688 -89.128906 3.273438 -87.726562 3.273438 -86.089844 L 3.273438 -3.042969 C 3.273438 -1.402344 4.679688 0 6.316406 0 L 27.371094 0 C 29.007812 0 30.410156 -1.402344 30.410156 -3.042969 L 30.410156 -86.089844 C 30.410156 -87.726562 31.816406 -89.128906 33.453125 -89.128906 L 81.644531 -89.128906 C 83.28125 -89.128906 84.683594 -87.726562 84.683594 -86.089844 L 84.683594 -3.042969 C 84.683594 -1.402344 86.089844 0 87.726562 0 L 108.78125 0 C 110.417969 0 111.820312 -1.402344 111.820312 -3.042969 L 111.820312 -86.089844 C 111.820312 -87.726562 113.222656 -89.128906 114.863281 -89.128906 L 163.050781 -89.128906 C 164.691406 -89.128906 166.09375 -87.726562 166.09375 -86.089844 L 166.09375 -3.042969 C 166.09375 -1.402344 167.496094 0 169.132812 0 L 190.1875 0 C 191.828125 0 193.230469 -1.402344 193.230469 -3.042969 L 193.230469 -86.089844 C 193.230469 -87.726562 191.828125 -89.128906 190.1875 -89.128906 L 182.703125 -89.128906 C 181.066406 -89.128906 179.660156 -90.53125 179.660156 -92.171875 L 179.660156 -97.316406 C 179.660156 -98.953125 178.257812 -100.359375 176.621094 -100.359375 L 169.132812 -100.359375 C 167.496094 -100.359375 166.09375 -101.761719 166.09375 -103.398438 L 166.09375 -108.3125 C 166.09375 -109.949219 164.691406 -111.351562 163.050781 -111.351562 L 114.863281 -111.351562 C 113.222656 -111.351562 111.820312 -109.949219 111.820312 -108.3125 L 111.820312 -103.398438 C 111.820312 -101.761719 110.417969 -100.359375 108.78125 -100.359375 L 87.726562 -100.359375 C 86.089844 -100.359375 84.683594 -101.761719 84.683594 -103.398438 L 84.683594 -108.3125 C 84.683594 -109.949219 83.28125 -111.351562 81.644531 -111.351562 Z M 33.453125 -111.351562 "/></g></g></g><g fill="#000000" fill-opacity="1"><g transform="translate(429.551156, 416.547172)"><g><path d="M 6.316406 0 L 27.371094 0 C 29.007812 0 30.410156 -1.402344 30.410156 -3.042969 L 30.410156 -86.089844 C 30.410156 -87.726562 31.816406 -89.128906 33.453125 -89.128906 L 81.644531 -89.128906 C 83.28125 -89.128906 84.683594 -90.53125 84.683594 -92.171875 L 84.683594 -108.3125 C 84.683594 -109.949219 83.28125 -111.351562 81.644531 -111.351562 L 33.453125 -111.351562 C 31.816406 -111.351562 30.410156 -112.757812 30.410156 -114.394531 L 30.410156 -130.769531 C 30.410156 -132.40625 31.816406 -133.808594 33.453125 -133.808594 L 81.644531 -133.808594 C 83.28125 -133.808594 84.683594 -135.214844 84.683594 -136.851562 L 84.683594 -152.992188 C 84.683594 -154.628906 83.28125 -156.035156 81.644531 -156.035156 L 33.453125 -156.035156 C 31.816406 -156.035156 30.410156 -154.628906 30.410156 -152.992188 L 30.410156 -148.082031 C 30.410156 -146.441406 29.007812 -145.039062 27.371094 -145.039062 L 19.882812 -145.039062 C 18.246094 -145.039062 16.84375 -143.636719 16.84375 -142 L 16.84375 -136.851562 C 16.84375 -135.214844 15.441406 -133.808594 13.800781 -133.808594 L 6.316406 -133.808594 C 4.679688 -133.808594 3.273438 -132.40625 3.273438 -130.769531 L 3.273438 -3.042969 C 3.273438 -1.402344 4.679688 0 6.316406 0 Z M 6.316406 0 "/></g></g></g></svg>