<svg width="800" height="400" viewBox="0 0 800 400" fill="none" xmlns="http://www.w3.org/2000/svg">
<g clip-path="url(#clip0_13_8)">
<rect width="800" height="400" fill="white"/>
<path d="M7.5 7.5H792.5V392.5H7.5V7.5Z" stroke="black" stroke-width="15"/>
<rect width="400" height="400" fill="black"/>
<path d="M75 293.75V137.5H262.5V168.75H293.75V293.75H231.25V168.75H200V293.75H137.5V168.75H106.25V293.75H75Z" fill="white"/>
<path d="M75 293.75H74V294.75H75V293.75ZM75 137.5V136.5H74V137.5H75ZM262.5 137.5H263.5V136.5H262.5V137.5ZM262.5 168.75H261.5V169.75H262.5V168.75ZM293.75 168.75H294.75V167.75H293.75V168.75ZM293.75 293.75V294.75H294.75V293.75H293.75ZM231.25 293.75H230.25V294.75H231.25V293.75ZM231.25 168.75H232.25V167.75H231.25V168.75ZM200 168.75V167.75H199V168.75H200ZM200 293.75V294.75H201V293.75H200ZM137.5 293.75H136.5V294.75H137.5V293.75ZM137.5 168.75H138.5V167.75H137.5V168.75ZM106.25 168.75V167.75H105.25V168.75H106.25ZM106.25 293.75V294.75H107.25V293.75H106.25ZM76 293.75V137.5H74V293.75H76ZM75 138.5H262.5V136.5H75V138.5ZM261.5 137.5V168.75H263.5V137.5H261.5ZM262.5 169.75H293.75V167.75H262.5V169.75ZM292.75 168.75V293.75H294.75V168.75H292.75ZM293.75 292.75H231.25V294.75H293.75V292.75ZM232.25 293.75V168.75H230.25V293.75H232.25ZM231.25 167.75H200V169.75H231.25V167.75ZM199 168.75V293.75H201V168.75H199ZM200 292.75H137.5V294.75H200V292.75ZM138.5 293.75V168.75H136.5V293.75H138.5ZM137.5 167.75H106.25V169.75H137.5V167.75ZM105.25 168.75V293.75H107.25V168.75H105.25ZM106.25 292.75H75V294.75H106.25V292.75Z" fill="black"/>
<path d="M553.75 304.75V179.75H491.25V148.5H553.75V117.25H585V86H678.75V117.25H616.25V148.5H678.75V179.75H616.25V304.75H553.75Z" fill="black"/>
<path d="M553.75 304.75H552.75V305.75H553.75V304.75ZM553.75 179.75H554.75V178.75H553.75V179.75ZM491.25 179.75H490.25V180.75H491.25V179.75ZM491.25 148.5V147.5H490.25V148.5H491.25ZM553.75 148.5V149.5H554.75V148.5H553.75ZM553.75 117.25V116.25H552.75V117.25H553.75ZM585 117.25V118.25H586V117.25H585ZM585 86V85H584V86H585ZM678.75 86H679.75V85H678.75V86ZM678.75 117.25V118.25H679.75V117.25H678.75ZM616.25 117.25V116.25H615.25V117.25H616.25ZM616.25 148.5H615.25V149.5H616.25V148.5ZM678.75 148.5H679.75V147.5H678.75V148.5ZM678.75 179.75V180.75H679.75V179.75H678.75ZM616.25 179.75V178.75H615.25V179.75H616.25ZM616.25 304.75V305.75H617.25V304.75H616.25ZM554.75 304.75V179.75H552.75V304.75H554.75ZM553.75 178.75H491.25V180.75H553.75V178.75ZM492.25 179.75V148.5H490.25V179.75H492.25ZM491.25 149.5H553.75V147.5H491.25V149.5ZM554.75 148.5V117.25H552.75V148.5H554.75ZM553.75 118.25H585V116.25H553.75V118.25ZM586 117.25V86H584V117.25H586ZM585 87H678.75V85H585V87ZM677.75 86V117.25H679.75V86H677.75ZM678.75 116.25H616.25V118.25H678.75V116.25ZM615.25 117.25V148.5H617.25V117.25H615.25ZM616.25 149.5H678.75V147.5H616.25V149.5ZM677.75 148.5V179.75H679.75V148.5H677.75ZM678.75 178.75H616.25V180.75H678.75V178.75ZM615.25 179.75V304.75H617.25V179.75H615.25ZM616.25 303.75H553.75V305.75H616.25V303.75Z" fill="black"/>
</g>
<defs>
<clipPath id="clip0_13_8">
<rect width="800" height="400" fill="white"/>
</clipPath>
</defs>
</svg>
