<svg width="800" height="400" viewBox="0 0 800 400" fill="none" xmlns="http://www.w3.org/2000/svg">
<g clip-path="url(#clip0_14_20)">
<rect width="800" height="400" fill="white"/>
<path d="M7.5 7.5H792.5V392.5H7.5V7.5Z" stroke="black" stroke-width="15"/>
<rect width="400" height="400" fill="black"/>
<path d="M100 275V150H250V175H275V275H225V175H200V275H150V175H125V275H100Z" fill="white"/>
<path d="M100 275H99V276H100V275ZM100 150V149H99V150H100ZM250 150H251V149H250V150ZM250 175H249V176H250V175ZM275 175H276V174H275V175ZM275 275V276H276V275H275ZM225 275H224V276H225V275ZM225 175H226V174H225V175ZM200 175V174H199V175H200ZM200 275V276H201V275H200ZM150 275H149V276H150V275ZM150 175H151V174H150V175ZM125 175V174H124V175H125ZM125 275V276H126V275H125ZM101 275V150H99V275H101ZM100 151H250V149H100V151ZM249 150V175H251V150H249ZM250 176H275V174H250V176ZM274 175V275H276V175H274ZM275 274H225V276H275V274ZM226 275V175H224V275H226ZM225 174H200V176H225V174ZM199 175V275H201V175H199ZM200 274H150V276H200V274ZM151 275V175H149V275H151ZM150 174H125V176H150V174ZM124 175V275H126V175H124ZM125 274H100V276H125V274Z" fill="black"/>
<path d="M560 286V186H510V161H560V136H585V111H660V136H610V161H660V186H610V286H560Z" fill="black"/>
<path d="M560 286H559V287H560V286ZM560 186H561V185H560V186ZM510 186H509V187H510V186ZM510 161V160H509V161H510ZM560 161V162H561V161H560ZM560 136V135H559V136H560ZM585 136V137H586V136H585ZM585 111V110H584V111H585ZM660 111H661V110H660V111ZM660 136V137H661V136H660ZM610 136V135H609V136H610ZM610 161H609V162H610V161ZM660 161H661V160H660V161ZM660 186V187H661V186H660ZM610 186V185H609V186H610ZM610 286V287H611V286H610ZM561 286V186H559V286H561ZM560 185H510V187H560V185ZM511 186V161H509V186H511ZM510 162H560V160H510V162ZM561 161V136H559V161H561ZM560 137H585V135H560V137ZM586 136V111H584V136H586ZM585 112H660V110H585V112ZM659 111V136H661V111H659ZM660 135H610V137H660V135ZM609 136V161H611V136H609ZM610 162H660V160H610V162ZM659 161V186H661V161H659ZM660 185H610V187H660V185ZM609 186V286H611V186H609ZM610 285H560V287H610V285Z" fill="black"/>
</g>
<defs>
<clipPath id="clip0_14_20">
<rect width="800" height="400" fill="white"/>
</clipPath>
</defs>
</svg>
